<svg xmlns="http://www.w3.org/2000/svg" viewBox="0 0 452.62 324.39">
  <title>send-mail</title>
  <g id="Ebene_2" data-name="Ebene 2">
    <g id="Ebene_1-2" data-name="Ebene 1">
      <path d="M412.35,0H40.27A40.32,40.32,0,0,0,0,40.27V284.11a40.32,40.32,0,0,0,40.27,40.28H412.35a40.32,40.32,0,0,0,40.27-40.28V40.27A40.32,40.32,0,0,0,412.35,0Zm-389,40.64L197.08,192.07a45.63,45.63,0,0,0,58.46,0L429.29,40.62V284.11a17,17,0,0,1-16.94,16.95H40.27a17,17,0,0,1-16.94-16.95ZM240.21,174.48c-7.4,6.44-20.39,6.44-27.8,0L39.07,23.39c.4,0,.8-.06,1.2-.06H412.35c.4,0,.79,0,1.18.06Z" fill="#c0c0c0"/>
    </g>
  </g>
</svg>